<?xml version="1.0" encoding="UTF-8"?>
<!DOCTYPE svg PUBLIC "-//W3C//DTD SVG 1.1//EN" "http://www.w3.org/Graphics/SVG/1.1/DTD/svg11.dtd">
<svg xmlns="http://www.w3.org/2000/svg" version="1.1" width="420px" height="138px" style="shape-rendering:geometricPrecision; text-rendering:geometricPrecision; image-rendering:optimizeQuality; fill-rule:evenodd; clip-rule:evenodd" xmlns:xlink="http://www.w3.org/1999/xlink">
<g><path style="opacity:1" fill="#7dd856" d="M 37.5,-0.5 C 152.167,-0.5 266.833,-0.5 381.5,-0.5C 383.509,1.06518 385.843,2.06518 388.5,2.5C 388.833,2.5 389.167,2.5 389.5,2.5C 391.048,5.72336 393.381,8.39002 396.5,10.5C 396.678,13.2165 397.178,15.8832 398,18.5C 398.5,51.4983 398.667,84.4983 398.5,117.5C 397.85,119.435 397.517,121.435 397.5,123.5C 394.916,124.048 393.916,125.715 394.5,128.5C 393.448,128.351 392.448,128.517 391.5,129C 389.46,131.336 387.127,133.169 384.5,134.5C 269.166,134.667 153.833,134.5 38.5,134C 35.8934,131.895 32.8934,131.062 29.5,131.5C 24.6733,128.039 21.6733,123.372 20.5,117.5C 20.1931,82.1424 20.5264,46.809 21.5,11.5C 21.5,10.8333 21.8333,10.5 22.5,10.5C 25.5,8.16667 28.1667,5.5 30.5,2.5C 33.1573,2.06518 35.4907,1.06518 37.5,-0.5 Z"/></g>
<g><path style="opacity:0.706" fill="#cbedb7" d="M 33.5,-0.5 C 34.8333,-0.5 36.1667,-0.5 37.5,-0.5C 35.4907,1.06518 33.1573,2.06518 30.5,2.5C 31.3065,1.27187 32.3065,0.271873 33.5,-0.5 Z"/></g>
<g><path style="opacity:0.047" fill="#dffacd" d="M 381.5,-0.5 C 382.5,-0.5 383.5,-0.5 384.5,-0.5C 386.076,0.142944 387.41,1.14294 388.5,2.5C 385.843,2.06518 383.509,1.06518 381.5,-0.5 Z"/></g>
<g><path style="opacity:0.604" fill="#bde6a6" d="M 389.5,2.5 C 392.573,4.56913 394.906,7.2358 396.5,10.5C 393.381,8.39002 391.048,5.72336 389.5,2.5 Z"/></g>
<g><path style="opacity:0.835" fill="#b1de98" d="M 30.5,2.5 C 28.1667,5.5 25.5,8.16667 22.5,10.5C 24.1667,6.83333 26.8333,4.16667 30.5,2.5 Z"/></g>
<g><path style="opacity:1" fill="#3e992e" d="M 267.5,42.5 C 268.492,42.3284 269.158,42.6618 269.5,43.5C 266.5,43.5 263.5,43.5 260.5,43.5C 260.5,46.1667 260.5,48.8333 260.5,51.5C 259.523,48.7131 259.19,45.7131 259.5,42.5C 262.167,42.5 264.833,42.5 267.5,42.5 Z"/></g>
<g><path style="opacity:1" fill="#79d65e" d="M 355.5,81.5 C 357.568,73.3913 358.068,65.0579 357,56.5C 356.308,55.9747 355.808,55.3081 355.5,54.5C 351.5,54.1667 347.5,53.8333 343.5,53.5C 339.075,53.5374 334.909,54.2041 331,55.5C 330.5,63.8267 330.334,72.16 330.5,80.5C 329.833,80.5 329.167,80.5 328.5,80.5C 328.666,71.8269 328.5,63.1603 328,54.5C 321.197,53.2188 314.364,53.2188 307.5,54.5C 305.735,53.5386 303.735,53.2053 301.5,53.5C 309.429,52.9398 317.429,51.9398 325.5,50.5C 326.814,51.3128 327.981,52.3128 329,53.5C 329.853,51.0645 330.853,48.7312 332,46.5C 333.319,48.2495 333.819,50.2495 333.5,52.5C 341.174,52.3336 348.841,52.5003 356.5,53C 358.373,55.1127 359.373,57.6127 359.5,60.5C 358.793,66.8133 358.293,73.1467 358,79.5C 357.292,80.3805 356.458,81.0472 355.5,81.5 Z"/></g>
<g><path style="opacity:1" fill="#046207" d="M 269.5,43.5 C 269.5,46.1667 269.5,48.8333 269.5,51.5C 266.465,52.7335 263.465,52.7335 260.5,51.5C 260.5,48.8333 260.5,46.1667 260.5,43.5C 263.5,43.5 266.5,43.5 269.5,43.5 Z"/></g>
<g><path style="opacity:1" fill="#06630b" d="M 44.5,69.5 C 47.6085,69.2641 50.6085,69.5975 53.5,70.5C 53.5,71.5 53.5,72.5 53.5,73.5C 55.8333,73.5 58.1667,73.5 60.5,73.5C 60.5,66.5 60.5,59.5 60.5,52.5C 53.6666,53.3296 50.9999,50.3296 52.5,43.5C 58.5,43.5 64.5,43.5 70.5,43.5C 70.6665,55.5046 70.4999,67.5046 70,79.5C 69.5,80 69,80.5 68.5,81C 60.8406,81.4997 53.1739,81.6664 45.5,81.5C 44.7279,77.5483 44.3946,73.5483 44.5,69.5 Z"/></g>
<g><path style="opacity:1" fill="#78d45a" d="M 267.5,42.5 C 264.833,42.5 262.167,42.5 259.5,42.5C 259.19,45.7131 259.523,48.7131 260.5,51.5C 263.465,52.7335 266.465,52.7335 269.5,51.5C 269.5,52.1667 269.5,52.8333 269.5,53.5C 266.167,53.5 262.833,53.5 259.5,53.5C 259.5,62.8333 259.5,72.1667 259.5,81.5C 262.167,81.5 264.833,81.5 267.5,81.5C 266.688,82.9931 265.355,83.6598 263.5,83.5C 260.767,83.032 258.1,82.3653 255.5,81.5C 256.324,78.2356 256.658,74.9023 256.5,71.5C 251.123,71.8808 245.79,72.5475 240.5,73.5C 240.5,69.1667 240.5,64.8333 240.5,60.5C 242.527,60.3379 244.527,60.5045 246.5,61C 247.38,62.3561 247.714,63.8561 247.5,65.5C 250.625,66.4794 253.958,66.8128 257.5,66.5C 257.815,62.6286 257.482,58.9619 256.5,55.5C 255.711,55.2172 255.044,54.7172 254.5,54C 246.841,53.5003 239.174,53.3336 231.5,53.5C 240.235,52.1719 249.068,52.1719 258,53.5C 258.866,51.1039 258.366,50.4372 256.5,51.5C 255.167,50.5 255.167,49.5 256.5,48.5C 257.086,48.7093 257.586,49.0426 258,49.5C 258.497,46.854 258.664,44.1873 258.5,41.5C 261.713,41.19 264.713,41.5233 267.5,42.5 Z"/></g>
<g><path style="opacity:1" fill="#03620b" d="M 269.5,53.5 C 269.486,63.0294 268.819,72.3627 267.5,81.5C 264.833,81.5 262.167,81.5 259.5,81.5C 259.5,72.1667 259.5,62.8333 259.5,53.5C 262.833,53.5 266.167,53.5 269.5,53.5 Z"/></g>
<g><path style="opacity:1" fill="#03630a" d="M 328.5,80.5 C 325.236,81.3242 321.902,81.6576 318.5,81.5C 318.5,75.1667 318.5,68.8333 318.5,62.5C 316.393,61.5318 314.059,61.1984 311.5,61.5C 311.5,67.8333 311.5,74.1667 311.5,80.5C 308.5,80.5 305.5,80.5 302.5,80.5C 302.5,71.8333 302.5,63.1667 302.5,54.5C 304.167,54.5 305.833,54.5 307.5,54.5C 314.364,53.2188 321.197,53.2188 328,54.5C 328.5,63.1603 328.666,71.8269 328.5,80.5 Z"/></g>
<g><path style="opacity:1" fill="#07640b" d="M 26.5,52.5 C 31.7908,55.7908 36.1241,60.1241 39.5,65.5C 35.8333,69.8333 31.8333,73.8333 27.5,77.5C 24.3951,72.7346 25.0618,68.5679 29.5,65C 25.4393,61.5897 24.4393,57.4231 26.5,52.5 Z"/></g>
<g><path style="opacity:1" fill="#04630b" d="M 231.5,53.5 C 239.174,53.3336 246.841,53.5003 254.5,54C 255.044,54.7172 255.711,55.2172 256.5,55.5C 256.5,58.8333 256.5,62.1667 256.5,65.5C 253.5,65.5 250.5,65.5 247.5,65.5C 247.714,63.8561 247.38,62.3561 246.5,61C 244.527,60.5045 242.527,60.3379 240.5,60.5C 240.5,64.8333 240.5,69.1667 240.5,73.5C 245.79,72.5475 251.123,71.8808 256.5,71.5C 256.658,74.9023 256.324,78.2356 255.5,81.5C 247.826,81.6664 240.159,81.4997 232.5,81C 232,80.5 231.5,80 231,79.5C 230.225,70.7855 230.392,62.1188 231.5,53.5 Z"/></g>
<g><path style="opacity:1" fill="#75d25c" d="M 123.5,53.5 C 117.132,53.1703 110.798,53.5037 104.5,54.5C 102.829,56.5098 102.162,58.8431 102.5,61.5C 107.845,61.3135 113.178,60.9801 118.5,60.5C 118.5,61.5 118.5,62.5 118.5,63.5C 113.637,63.1805 108.97,63.5139 104.5,64.5C 102.455,69.2145 101.955,74.2145 103,79.5C 103.5,80 104,80.5 104.5,81C 112.918,81.1128 121.252,81.2794 129.5,81.5C 129.666,72.8269 129.5,64.1603 129,55.5C 128.005,54.9341 127.172,54.2674 126.5,53.5C 128.5,53.5 130.5,53.5 132.5,53.5C 131.392,62.1188 131.225,70.7855 132,79.5C 132.5,80 133,80.5 133.5,81C 141.159,81.4997 148.826,81.6664 156.5,81.5C 146.008,82.3304 135.341,82.8304 124.5,83C 123.5,85 122.5,85 121.5,83C 113.815,82.6472 106.148,82.1472 98.5,81.5C 99.4421,72.8873 99.7754,64.2206 99.5,55.5C 101.359,55.5391 102.692,54.7058 103.5,53C 102.027,52.2904 101.36,51.1238 101.5,49.5C 102.978,49.762 104.311,49.4287 105.5,48.5C 103.957,44.0711 105.624,42.4044 110.5,43.5C 107.909,44.9913 106.909,47.3247 107.5,50.5C 109.401,50.5668 111.234,50.2335 113,49.5C 119.503,53.3628 123.336,51.6962 124.5,44.5C 122.453,44.5111 120.453,44.8444 118.5,45.5C 116.238,44.5331 113.905,43.8664 111.5,43.5C 111.47,42.5028 111.97,41.8361 113,41.5C 116.223,44.5018 118.89,44.1685 121,40.5C 122,41.8333 123,41.8333 124,40.5C 125.89,42.4104 127.723,44.4104 129.5,46.5C 130.5,47.8333 131.5,47.8333 132.5,46.5C 133.711,47.2739 133.711,48.1072 132.5,49C 129.17,50.2492 126.17,51.7492 123.5,53.5 Z"/></g>
<g><path style="opacity:1" fill="#04630c" d="M 123.5,53.5 C 124.5,53.5 125.5,53.5 126.5,53.5C 127.172,54.2674 128.005,54.9341 129,55.5C 129.5,64.1603 129.666,72.8269 129.5,81.5C 121.252,81.2794 112.918,81.1128 104.5,81C 104,80.5 103.5,80 103,79.5C 101.955,74.2145 102.455,69.2145 104.5,64.5C 109.5,64.5 114.5,64.5 119.5,64.5C 119.768,62.901 119.434,61.5676 118.5,60.5C 113.178,60.9801 107.845,61.3135 102.5,61.5C 102.162,58.8431 102.829,56.5098 104.5,54.5C 110.798,53.5037 117.132,53.1703 123.5,53.5 Z"/></g>
<g><path style="opacity:1" fill="#066307" d="M 110.5,43.5 C 110.833,43.5 111.167,43.5 111.5,43.5C 113.905,43.8664 116.238,44.5331 118.5,45.5C 120.453,44.8444 122.453,44.5111 124.5,44.5C 123.336,51.6962 119.503,53.3628 113,49.5C 111.234,50.2335 109.401,50.5668 107.5,50.5C 106.909,47.3247 107.909,44.9913 110.5,43.5 Z"/></g>
<g><path style="opacity:1" fill="#03620b" d="M 99.5,55.5 C 99.7754,64.2206 99.4421,72.8873 98.5,81.5C 90.4144,81.8005 82.4144,81.4672 74.5,80.5C 73.5314,72.2517 73.1981,63.9183 73.5,55.5C 73.6107,54.8826 73.944,54.3826 74.5,54C 82.1667,53.3333 89.8333,53.3333 97.5,54C 98.0442,54.7172 98.7109,55.2172 99.5,55.5 Z"/></g>
<g><path style="opacity:1" fill="#53b347" d="M 118.5,60.5 C 119.434,61.5676 119.768,62.901 119.5,64.5C 114.5,64.5 109.5,64.5 104.5,64.5C 108.97,63.5139 113.637,63.1805 118.5,63.5C 118.5,62.5 118.5,61.5 118.5,60.5 Z"/></g>
<g><path style="opacity:1" fill="#03620a" d="M 132.5,53.5 C 140.528,53.169 148.528,53.5023 156.5,54.5C 156.808,55.3081 157.308,55.9747 158,56.5C 159.068,65.0579 158.568,73.3913 156.5,81.5C 148.826,81.6664 141.159,81.4997 133.5,81C 133,80.5 132.5,80 132,79.5C 131.225,70.7855 131.392,62.1188 132.5,53.5 Z"/></g>
<g><path style="opacity:1" fill="#07650c" d="M 201.5,53.5 C 204.788,53.073 207.788,53.7397 210.5,55.5C 211.496,61.4632 211.829,67.4632 211.5,73.5C 213.5,73.5 215.5,73.5 217.5,73.5C 217.442,67.0752 218.109,60.7419 219.5,54.5C 222.428,53.5159 225.428,53.1826 228.5,53.5C 228.5,62.8333 228.5,72.1667 228.5,81.5C 220.256,81.1138 211.923,81.1138 203.5,81.5C 201.569,72.4299 200.903,63.0966 201.5,53.5 Z"/></g>
<g><path style="opacity:1" fill="#58b64c" d="M 282.5,61.5 C 284.607,60.5318 286.941,60.1984 289.5,60.5C 289.5,61.8333 289.5,63.1667 289.5,64.5C 284.833,64.5 280.167,64.5 275.5,64.5C 279.684,63.8336 284.018,63.1669 288.5,62.5C 286.604,61.5344 284.604,61.2011 282.5,61.5 Z"/></g>
<g><path style="opacity:1" fill="#2d891e" d="M 256.5,55.5 C 257.482,58.9619 257.815,62.6286 257.5,66.5C 253.958,66.8128 250.625,66.4794 247.5,65.5C 250.5,65.5 253.5,65.5 256.5,65.5C 256.5,62.1667 256.5,58.8333 256.5,55.5 Z"/></g>
<g><path style="opacity:1" fill="#7ed95f" d="M 89.5,61.5 C 89.5,65.5 89.5,69.5 89.5,73.5C 87.5,73.5 85.5,73.5 83.5,73.5C 83.5,69.5 83.5,65.5 83.5,61.5C 85.5,61.5 87.5,61.5 89.5,61.5 Z"/></g>
<g><path style="opacity:1" fill="#7cd75f" d="M 147.5,61.5 C 147.5,65.5 147.5,69.5 147.5,73.5C 145.5,73.5 143.5,73.5 141.5,73.5C 141.5,69.5 141.5,65.5 141.5,61.5C 143.5,61.5 145.5,61.5 147.5,61.5 Z"/></g>
<g><path style="opacity:1" fill="#4ca93f" d="M 147.5,61.5 C 148.485,65.6344 148.818,69.9677 148.5,74.5C 145.941,74.8016 143.607,74.4682 141.5,73.5C 143.5,73.5 145.5,73.5 147.5,73.5C 147.5,69.5 147.5,65.5 147.5,61.5 Z"/></g>
<g><path style="opacity:1" fill="#77d55e" d="M 201.5,53.5 C 200.903,63.0966 201.569,72.4299 203.5,81.5C 201.833,81.5 200.167,81.5 198.5,81.5C 198.5,78.5 198.5,75.5 198.5,72.5C 194.167,72.5 189.833,72.5 185.5,72.5C 185.5,62.8333 185.5,53.1667 185.5,43.5C 182.167,43.5 178.833,43.5 175.5,43.5C 176.694,42.2227 178.36,41.5561 180.5,41.5C 183.388,41.3853 186.055,42.0519 188.5,43.5C 187.902,44.7946 187.402,46.1279 187,47.5C 186.5,55.1594 186.334,62.8261 186.5,70.5C 190.833,70.5 195.167,70.5 199.5,70.5C 199.334,64.4908 199.501,58.4908 200,52.5C 200.383,53.056 200.883,53.3893 201.5,53.5 Z"/></g>
<g><path style="opacity:1" fill="#2f8e1c" d="M 44.5,69.5 C 45.7933,68.8418 47.2933,68.5085 49,68.5C 50.9855,68.5687 52.4855,69.2353 53.5,70.5C 50.6085,69.5975 47.6085,69.2641 44.5,69.5 Z"/></g>
<g><path style="opacity:1" fill="#51af3f" d="M 318.5,62.5 C 316.5,62.5 314.5,62.5 312.5,62.5C 312.823,68.69 312.49,74.69 311.5,80.5C 311.5,74.1667 311.5,67.8333 311.5,61.5C 314.059,61.1984 316.393,61.5318 318.5,62.5 Z"/></g>
<g><path style="opacity:1" fill="#2e8b25" d="M 89.5,61.5 C 90.4849,65.6344 90.8182,69.9677 90.5,74.5C 87.9407,74.8016 85.6074,74.4682 83.5,73.5C 85.5,73.5 87.5,73.5 89.5,73.5C 89.5,69.5 89.5,65.5 89.5,61.5 Z"/></g>
<g><path style="opacity:1" fill="#50b042" d="M 112.5,70.5 C 114.607,69.5318 116.941,69.1984 119.5,69.5C 119.5,71.1667 119.5,72.8333 119.5,74.5C 116.941,74.8016 114.607,74.4682 112.5,73.5C 114.5,73.5 116.5,73.5 118.5,73.5C 118.5,72.5 118.5,71.5 118.5,70.5C 116.5,70.5 114.5,70.5 112.5,70.5 Z"/></g>
<g><path style="opacity:1" fill="#7cdd62" d="M 112.5,70.5 C 114.5,70.5 116.5,70.5 118.5,70.5C 118.5,71.5 118.5,72.5 118.5,73.5C 116.5,73.5 114.5,73.5 112.5,73.5C 112.5,72.5 112.5,71.5 112.5,70.5 Z"/></g>
<g><path style="opacity:0.598" fill="#ace094" d="M 396.5,10.5 C 398.446,12.734 399.613,15.4006 400,18.5C 400.831,51.6692 400.664,84.6692 399.5,117.5C 399.167,117.5 398.833,117.5 398.5,117.5C 398.667,84.4983 398.5,51.4983 398,18.5C 397.178,15.8832 396.678,13.2165 396.5,10.5 Z"/></g>
<g><path style="opacity:1" fill="#49a635" d="M 73.5,55.5 C 73.1981,63.9183 73.5314,72.2517 74.5,80.5C 73.1752,76.7238 72.5085,72.5572 72.5,68C 72.501,63.6528 72.8343,59.4861 73.5,55.5 Z"/></g>
<g><path style="opacity:1" fill="#09660d" d="M 175.5,43.5 C 178.833,43.5 182.167,43.5 185.5,43.5C 185.5,53.1667 185.5,62.8333 185.5,72.5C 189.833,72.5 194.167,72.5 198.5,72.5C 198.5,75.5 198.5,78.5 198.5,81.5C 190.5,81.5 182.5,81.5 174.5,81.5C 174.171,68.6557 174.505,55.989 175.5,43.5 Z"/></g>
<g><path style="opacity:1" fill="#27811d" d="M 301.5,53.5 C 303.735,53.2053 305.735,53.5386 307.5,54.5C 305.833,54.5 304.167,54.5 302.5,54.5C 302.5,63.1667 302.5,71.8333 302.5,80.5C 305.5,80.5 308.5,80.5 311.5,80.5C 308.375,81.4794 305.042,81.8128 301.5,81.5C 301.5,72.1667 301.5,62.8333 301.5,53.5 Z"/></g>
<g><path style="opacity:1" fill="#03620b" d="M 355.5,81.5 C 347.112,81.7729 338.779,81.4396 330.5,80.5C 330.334,72.16 330.5,63.8267 331,55.5C 334.909,54.2041 339.075,53.5374 343.5,53.5C 347.5,53.8333 351.5,54.1667 355.5,54.5C 355.808,55.3081 356.308,55.9747 357,56.5C 358.068,65.0579 357.568,73.3913 355.5,81.5 Z"/></g>
<g><path style="opacity:1" fill="#4caa3f" d="M 346.5,61.5 C 347.485,65.6344 347.818,69.9677 347.5,74.5C 344.941,74.8016 342.607,74.4682 340.5,73.5C 342.5,73.5 344.5,73.5 346.5,73.5C 346.5,69.5 346.5,65.5 346.5,61.5 Z"/></g>
<g><path style="opacity:1" fill="#7bd75e" d="M 346.5,61.5 C 346.5,65.5 346.5,69.5 346.5,73.5C 344.5,73.5 342.5,73.5 340.5,73.5C 340.5,69.5 340.5,65.5 340.5,61.5C 342.5,61.5 344.5,61.5 346.5,61.5 Z"/></g>
<g><path style="opacity:1" fill="#04630a" d="M 275.5,64.5 C 280.167,64.5 284.833,64.5 289.5,64.5C 289.5,63.1667 289.5,61.8333 289.5,60.5C 286.941,60.1984 284.607,60.5318 282.5,61.5C 279.167,61.5 275.833,61.5 272.5,61.5C 272.387,58.9512 273.054,56.6179 274.5,54.5C 282.584,53.0656 290.584,53.2323 298.5,55C 299.484,63.7489 299.817,72.5822 299.5,81.5C 291.645,81.3123 283.645,81.1456 275.5,81C 273.362,78.7167 272.362,75.8834 272.5,72.5C 272.833,70.1667 273.167,67.8333 273.5,65.5C 274.183,65.1373 274.85,64.8039 275.5,64.5 Z"/></g>
<g><path style="opacity:1" fill="#74d360" d="M 282.5,69.5 C 284.833,69.5 287.167,69.5 289.5,69.5C 289.5,70.8333 289.5,72.1667 289.5,73.5C 287.167,73.5 284.833,73.5 282.5,73.5C 282.5,72.1667 282.5,70.8333 282.5,69.5 Z"/></g>
<g><path style="opacity:0.82" fill="#8bd06c" d="M 21.5,11.5 C 20.5264,46.809 20.1931,82.1424 20.5,117.5C 19.5017,84.3375 19.1684,51.0042 19.5,17.5C 19.595,15.2143 20.2616,13.2143 21.5,11.5 Z"/></g>
<g><path style="opacity:1" fill="#04630a" d="M 359.5,81.5 C 371.5,81.5 383.5,81.5 395.5,81.5C 395.5,84.5 395.5,87.5 395.5,90.5C 383.5,90.5 371.5,90.5 359.5,90.5C 359.5,87.5 359.5,84.5 359.5,81.5 Z"/></g>
<g><path style="opacity:0.482" fill="#b5e4a1" d="M 398.5,117.5 C 398.833,117.5 399.167,117.5 399.5,117.5C 399.741,119.898 399.074,121.898 397.5,123.5C 397.517,121.435 397.85,119.435 398.5,117.5 Z"/></g>
<g><path style="opacity:0.784" fill="#c1e8ac" d="M 19.5,17.5 C 19.1684,51.0042 19.5017,84.3375 20.5,117.5C 21.6733,123.372 24.6733,128.039 29.5,131.5C 29.8333,132.167 30.1667,132.833 30.5,133.5C 24.263,130.42 20.4297,125.42 19,118.5C 18.1691,84.6642 18.3358,50.9975 19.5,17.5 Z"/></g>
<g><path style="opacity:0.769" fill="#a3de86" d="M 397.5,123.5 C 396.89,125.434 395.89,127.101 394.5,128.5C 393.916,125.715 394.916,124.048 397.5,123.5 Z"/></g>
<g><path style="opacity:0.592" fill="#a1d886" d="M 394.5,128.5 C 391.875,131.815 388.542,134.149 384.5,135.5C 384.5,135.167 384.5,134.833 384.5,134.5C 387.127,133.169 389.46,131.336 391.5,129C 392.448,128.517 393.448,128.351 394.5,128.5 Z"/></g>
<g><path style="opacity:0.935" fill="#82d460" d="M 29.5,131.5 C 32.8934,131.062 35.8934,131.895 38.5,134C 153.833,134.5 269.166,134.667 384.5,134.5C 384.5,134.833 384.5,135.167 384.5,135.5C 268.5,135.667 152.5,135.5 36.5,135C 34.7505,133.681 32.7505,133.181 30.5,133.5C 30.1667,132.833 29.8333,132.167 29.5,131.5 Z"/></g>
<g><path style="opacity:0.647" fill="#aedc92" d="M 30.5,133.5 C 32.7505,133.181 34.7505,133.681 36.5,135C 152.5,135.5 268.5,135.667 384.5,135.5C 382.5,136.167 380.5,136.833 378.5,137.5C 265.167,137.5 151.833,137.5 38.5,137.5C 35.5962,136.715 32.9296,135.381 30.5,133.5 Z"/></g>
</svg>
